<svg width="50" height="50" viewBox="0 0 50 50" fill="none" xmlns="http://www.w3.org/2000/svg">
<path d="M17.3635 3.40836H30.925L16.8469 45.1203C16.7022 45.549 16.4267 45.9214 16.0592 46.1853C15.6918 46.4491 15.2508 46.5911 14.7984 46.5912H4.24427C3.90151 46.5912 3.56367 46.5096 3.2587 46.3532C2.95372 46.1968 2.69038 45.97 2.49046 45.6915C2.29053 45.4131 2.15977 45.0911 2.10899 44.7522C2.05821 44.4132 2.08887 44.067 2.19844 43.7422L15.3146 4.87919C15.4592 4.45039 15.7347 4.07777 16.1023 3.81381C16.4699 3.54985 16.911 3.40838 17.3635 3.40836Z" fill="url(#paint0_linear_2243_10747)"/>
<path d="M37.0703 31.386H15.5651C15.3652 31.3858 15.1698 31.4458 15.0045 31.5582C14.8391 31.6706 14.7114 31.8301 14.6381 32.0161C14.5647 32.2021 14.5491 32.4059 14.5932 32.6009C14.6373 32.7959 14.7392 32.9731 14.8854 33.1094L28.7042 46.0073C29.1065 46.3826 29.6363 46.5913 30.1865 46.5912H42.3635L37.0703 31.386Z" fill="#0078D4"/>
<path d="M17.3635 3.40834C16.9061 3.40659 16.46 3.55115 16.0905 3.82092C15.7211 4.0907 15.4475 4.47154 15.3099 4.90782L2.21458 43.7068C2.09765 44.0327 2.06093 44.3821 2.10755 44.7252C2.15417 45.0683 2.28275 45.3952 2.48241 45.6781C2.68207 45.9611 2.94694 46.1918 3.25461 46.3507C3.56229 46.5096 3.90371 46.5921 4.25 46.5912H15.0766C15.4798 46.5191 15.8567 46.3413 16.1687 46.076C16.4807 45.8106 16.7167 45.4672 16.8526 45.0807L19.4641 37.3844L28.7922 46.0849C29.1831 46.4082 29.6735 46.587 30.1807 46.5912H42.3125L36.9917 31.3859L21.4807 31.3896L30.974 3.40834H17.3635Z" fill="url(#paint1_linear_2243_10747)"/>
<path d="M34.6849 4.87708C34.5405 4.44897 34.2654 4.07696 33.8983 3.81347C33.5313 3.54998 33.0909 3.40827 32.6391 3.40833H17.525C17.9768 3.40835 18.4172 3.55008 18.7842 3.81357C19.1512 4.07705 19.4263 4.44901 19.5708 4.87708L32.6875 43.7417C32.7971 44.0665 32.8279 44.4128 32.7771 44.7518C32.7264 45.0909 32.5957 45.413 32.3957 45.6915C32.1958 45.97 31.9325 46.1969 31.6274 46.3535C31.3224 46.51 30.9845 46.5916 30.6417 46.5917H45.7562C46.099 46.5916 46.4369 46.5098 46.7418 46.3533C47.0468 46.1967 47.3101 45.9698 47.51 45.6913C47.7098 45.4128 47.8405 45.0907 47.8912 44.7517C47.9419 44.4127 47.9112 44.0664 47.8016 43.7417L34.6849 4.87708Z" fill="url(#paint2_linear_2243_10747)"/>
<defs>
<linearGradient id="paint0_linear_2243_10747" x1="22.3063" y1="6.60836" x2="8.2224" y2="48.2157" gradientUnits="userSpaceOnUse">
<stop stop-color="#114A8B"/>
<stop offset="1" stop-color="#0669BC"/>
</linearGradient>
<linearGradient id="paint1_linear_2243_10747" x1="26.7057" y1="25.9984" x2="23.4479" y2="27.1" gradientUnits="userSpaceOnUse">
<stop stop-opacity="0.3"/>
<stop offset="0.071" stop-opacity="0.2"/>
<stop offset="0.321" stop-opacity="0.1"/>
<stop offset="0.623" stop-opacity="0.05"/>
<stop offset="1" stop-opacity="0"/>
</linearGradient>
<linearGradient id="paint2_linear_2243_10747" x1="24.9141" y1="5.39478" x2="40.374" y2="46.5828" gradientUnits="userSpaceOnUse">
<stop stop-color="#3CCBF4"/>
<stop offset="1" stop-color="#2892DF"/>
</linearGradient>
</defs>
</svg>
