<svg width="50" height="57" viewBox="0 0 50 57" fill="none" xmlns="http://www.w3.org/2000/svg">
<path d="M50 28.4919C50 25.1796 45.852 22.0406 39.4925 20.094C40.96 13.6121 40.3078 8.4552 37.4338 6.80416C36.7713 6.41688 35.9967 6.23343 35.1508 6.23343V8.50615C35.6196 8.50615 35.9967 8.59788 36.3127 8.77114C37.6987 9.56608 38.3 12.593 37.8312 16.4862C37.7191 17.4442 37.5357 18.4532 37.3115 19.4825C35.3139 18.9933 33.1329 18.6162 30.8398 18.3716C29.4639 16.4862 28.0371 14.774 26.6001 13.2758C29.9225 10.1878 33.0412 8.49596 35.161 8.49596V6.22324C32.3583 6.22324 28.6894 8.22079 24.9796 11.6859C21.2699 8.24117 17.6009 6.264 14.7982 6.264V8.53673C16.9079 8.53673 20.0367 10.2183 23.3592 13.286C21.9323 14.7842 20.5055 16.4862 19.15 18.3716C16.8467 18.6162 14.6657 18.9933 12.6682 19.4927C12.4338 18.4735 12.2605 17.485 12.1382 16.5371C11.6592 12.6439 12.2503 9.61704 13.6262 8.8119C13.9319 8.62845 14.3294 8.54692 14.7982 8.54692V6.27419C13.9421 6.27419 13.1675 6.45764 12.4949 6.84492C9.63106 8.49596 8.98899 13.6427 10.4668 20.1042C4.1276 22.061 0 25.1898 0 28.4919C0 31.8042 4.14798 34.9432 10.5075 36.8898C9.03995 43.3716 9.69221 48.5286 12.5662 50.1796C13.2287 50.5669 14.0033 50.7503 14.8594 50.7503C17.662 50.7503 21.331 48.7528 25.0408 45.2876C28.7505 48.7324 32.4195 50.7096 35.2222 50.7096C36.0783 50.7096 36.8528 50.5261 37.5255 50.1388C40.3893 48.4878 41.0314 43.341 39.5536 36.8796C45.8724 34.933 50 31.794 50 28.4919ZM36.7305 21.6941C36.3534 23.0088 35.8846 24.3643 35.3547 25.7198C34.9368 24.9044 34.4986 24.0891 34.0196 23.2738C33.5508 22.4585 33.0514 21.6635 32.552 20.889C33.9992 21.103 35.3954 21.368 36.7305 21.6941ZM32.0628 32.5481C31.2678 33.924 30.4525 35.2285 29.6066 36.4413C28.0881 36.5738 26.5491 36.6452 25 36.6452C23.4611 36.6452 21.9221 36.5738 20.4138 36.4515C19.5679 35.2387 18.7424 33.9444 17.9474 32.5787C17.1728 31.2436 16.4696 29.8881 15.8276 28.5225C16.4594 27.1568 17.1729 25.7911 17.9372 24.456C18.7322 23.0801 19.5475 21.7756 20.3934 20.5628C21.9119 20.4303 23.4509 20.359 25 20.359C26.5389 20.359 28.0779 20.4303 29.5862 20.5526C30.4321 21.7654 31.2576 23.0598 32.0526 24.4254C32.8272 25.7605 33.5304 27.116 34.1724 28.4817C33.5304 29.8474 32.8271 31.213 32.0628 32.5481ZM35.3547 31.2232C35.905 32.5889 36.3738 33.9546 36.7611 35.2795C35.426 35.6056 34.0196 35.8808 32.5622 36.0948C33.0616 35.3101 33.5609 34.5049 34.0298 33.6794C34.4986 32.8641 34.9368 32.0386 35.3547 31.2232ZM25.0204 42.0977C24.0726 41.1193 23.1247 40.0288 22.1871 38.8364C23.1044 38.8771 24.042 38.9077 24.9898 38.9077C25.9478 38.9077 26.8956 38.8873 27.8231 38.8364C26.9058 40.0288 25.958 41.1193 25.0204 42.0977ZM17.4378 36.0948C15.9906 35.8808 14.5944 35.6158 13.2593 35.2897C13.6364 33.975 14.1052 32.6195 14.6351 31.264C15.053 32.0793 15.4912 32.8947 15.9702 33.71C16.4492 34.5253 16.9384 35.3203 17.4378 36.0948ZM24.9694 14.8861C25.9172 15.8645 26.8651 16.955 27.8027 18.1474C26.8854 18.1066 25.9478 18.0761 25 18.0761C24.042 18.0761 23.0942 18.0965 22.1667 18.1474C23.084 16.955 24.0318 15.8645 24.9694 14.8861ZM17.4276 20.889C16.9283 21.6737 16.4289 22.4788 15.96 23.3044C15.4912 24.1197 15.053 24.935 14.6351 25.7503C14.0848 24.3847 13.616 23.019 13.2287 21.6941C14.5638 21.3781 15.9702 21.103 17.4276 20.889ZM8.20424 33.6488C4.59641 32.1099 2.26254 30.092 2.26254 28.4919C2.26254 26.8918 4.59641 24.8637 8.20424 23.3349C9.08072 22.9578 10.0387 22.6215 11.0273 22.3056C11.6082 24.3031 12.3726 26.3822 13.3204 28.5123C12.3828 30.6321 11.6286 32.701 11.0579 34.6884C10.0489 34.3724 9.09091 34.0259 8.20424 33.6488ZM13.6873 48.2126C12.3013 47.4177 11.7 44.3908 12.1688 40.4976C12.2809 39.5396 12.4643 38.5306 12.6885 37.5013C14.6861 37.9905 16.8671 38.3675 19.1602 38.6121C20.5361 40.4976 21.9629 42.2098 23.3999 43.7079C20.0775 46.796 16.9588 48.4878 14.839 48.4878C14.3803 48.4776 13.9931 48.3859 13.6873 48.2126ZM37.8618 40.4466C38.3408 44.3398 37.7497 47.3667 36.3738 48.1719C36.0681 48.3553 35.6706 48.4369 35.2018 48.4369C33.0921 48.4369 29.9633 46.7552 26.6409 43.6876C28.0677 42.1894 29.4945 40.4874 30.85 38.602C33.1533 38.3574 35.3343 37.9803 37.3318 37.4809C37.5662 38.5102 37.7497 39.4988 37.8618 40.4466ZM41.7856 33.6488C40.9091 34.0259 39.9511 34.3622 38.9625 34.6782C38.3816 32.6806 37.6172 30.6015 36.6694 28.4715C37.607 26.3516 38.3612 24.2828 38.9319 22.2954C39.9409 22.6113 40.8989 22.9578 41.7958 23.3349C45.4036 24.8739 47.7375 26.8918 47.7375 28.4919C47.7273 30.092 45.3934 32.1201 41.7856 33.6488Z" fill="#61DAFB"/>
<path d="M24.9898 33.1494C27.5621 33.1494 29.6474 31.0642 29.6474 28.4919C29.6474 25.9196 27.5621 23.8343 24.9898 23.8343C22.4175 23.8343 20.3322 25.9196 20.3322 28.4919C20.3322 31.0642 22.4175 33.1494 24.9898 33.1494Z" fill="#61DAFB"/>
</svg>
