<svg width="50" height="50" viewBox="0 0 50 50" fill="none" xmlns="http://www.w3.org/2000/svg">
<g clip-path="url(#clip0_2195_10745)">
<path d="M0 25V50H50.0016V-0.00158691H0V25ZM40.2945 23.0078C41.5641 23.325 42.5328 23.889 43.4219 24.8094C43.8828 25.3015 44.5648 26.1984 44.6203 26.4125C44.6359 26.475 42.4617 27.9359 41.1438 28.7539C41.0969 28.7851 40.9055 28.5797 40.6906 28.2617C40.0477 27.3242 39.3734 26.9203 38.3414 26.8492C36.8258 26.7461 35.8414 27.5398 35.857 28.8648C35.857 29.2539 35.9117 29.4836 36.0711 29.8023C36.4047 30.4929 37.0242 30.9054 38.968 31.7476C42.5477 33.2867 44.0789 34.3023 45.0305 35.7476C46.093 37.3586 46.332 39.9304 45.6102 41.8429C44.8164 43.9226 42.8484 45.3351 40.0789 45.8039C39.2219 45.9547 37.1898 45.9312 36.2695 45.7648C34.2617 45.4078 32.357 44.4156 31.182 43.114C30.7211 42.6062 29.825 41.2804 29.8805 41.1843C29.9039 41.1531 30.1109 41.0258 30.3414 40.8906L32.1984 39.8203L33.6359 38.9867L33.9375 39.432C34.3578 40.075 35.2789 40.9554 35.8344 41.2492C37.4297 42.0906 39.6203 41.9711 40.6992 41.0031C41.1602 40.5828 41.35 40.1461 41.35 39.5031C41.35 38.9234 41.2797 38.6695 40.9773 38.2336C40.5883 37.6789 39.7945 37.2101 37.5398 36.2336C34.9602 35.1226 33.8492 34.432 32.8336 33.3367C32.2461 32.7015 31.6906 31.6859 31.4602 30.8367C31.2695 30.1304 31.2219 28.3601 31.3727 27.6461C31.9039 25.1461 33.7852 23.4156 36.5 22.9C37.3813 22.7336 39.4297 22.7969 40.2938 23.0109L40.2945 23.0078ZM28.5562 25.0937L28.5719 27.1406H22.0641V45.6328H17.4609V27.1406H10.9531V25.1328L11.0078 23.0703C11.0313 23.039 14.9922 23.0234 19.7938 23.0312L28.532 23.0547L28.5562 25.0937Z" fill="#007ACC"/>
</g>
<defs>
<clipPath id="clip0_2195_10745">
<rect width="50" height="50" fill="white"/>
</clipPath>
</defs>
</svg>
